<?xml version="1.0" encoding="UTF-8"?>
<svg viewBox="0 0 200 200" xmlns="http://www.w3.org">
    <rect width="200" height="200" fill="#121212" rx="40" />
    <g stroke="#333333" stroke-width="4">
        <line x1="40" y1="40" x2="40" y2="160" />
        <line x1="100" y1="40" x2="100" y2="160" />
        <line x1="160" y1="40" x2="160" y2="160" />
        <line x1="40" y1="40" x2="160" y2="40" />
        <line x1="40" y1="100" x2="160" y2="100" />
        <line x1="40" y1="160" x2="160" y2="160" />
    </g>
    <line x1="40" y1="100" x2="160" y2="100" stroke="#00ffcc" stroke-width="8" stroke-linecap="round" />
    <line x1="100" y1="40" x2="100" y2="160" stroke="#00ffcc" stroke-width="8" stroke-linecap="round" />
    <g fill="#121212" stroke="#00ffcc" stroke-width="6">
        <circle cx="100" cy="100" r="15" fill="#00ffcc" />
        <circle cx="40" cy="100" r="10" />
        <circle cx="160" cy="100" r="10" />
        <circle cx="100" cy="40" r="10" />
        <circle cx="100" cy="160" r="10" />
    </g>
    <g fill="#ffffff">
        <circle cx="40" cy="40" r="6" />
        <circle cx="160" cy="40" r="6" />
        <circle cx="40" cy="160" r="6" />
        <circle cx="160" cy="160" r="6" />
    </g>
</svg>
